<svg width="40" height="40" viewBox="0 0 40 40" fill="none" xmlns="http://www.w3.org/2000/svg">
<g filter="url(#filter0_b_795_31341)">
<rect x="8" y="8" width="24" height="24" rx="4" fill="white" fill-opacity="0.2"/>
</g>
<mask id="path-3-inside-1_795_31341" fill="white">
<path fill-rule="evenodd" clip-rule="evenodd" d="M12.8941 14.6059C11.0196 16.4804 11.0196 19.5196 12.8941 21.3941L13.3184 21.8184L18.6924 27.1924C18.7412 27.2412 18.7919 27.287 18.8443 27.3297C19.6298 27.9704 20.7886 27.9246 21.5208 27.1924L27.3191 21.3941C29.1936 19.5196 29.1936 16.4804 27.3191 14.6059C25.4446 12.7314 22.4054 12.7314 20.5309 14.6059L20.1066 15.0302L19.6823 14.6059C17.8078 12.7314 14.7686 12.7314 12.8941 14.6059Z"/>
</mask>
<path d="M18.8443 27.3297L19.4763 26.5547L19.4763 26.5547L18.8443 27.3297ZM21.5208 27.1924L20.8137 26.4853L20.8137 26.4853L21.5208 27.1924ZM27.3191 21.3941L28.0262 22.1012L27.3191 21.3941ZM20.5309 14.6059L19.8238 13.8988L20.5309 14.6059ZM20.1066 15.0302L19.3995 15.7373C19.79 16.1278 20.4232 16.1278 20.8137 15.7373L20.1066 15.0302ZM13.6012 20.687C12.1172 19.203 12.1172 16.797 13.6012 15.313L12.187 13.8988C9.92196 16.1638 9.92197 19.8362 12.187 22.1012L13.6012 20.687ZM14.0255 21.1113L13.6012 20.687L12.187 22.1012L12.6113 22.5255L14.0255 21.1113ZM19.3995 26.4853L14.0255 21.1113L12.6113 22.5255L17.9853 27.8995L19.3995 26.4853ZM19.4763 26.5547C19.4501 26.5333 19.4244 26.5102 19.3995 26.4853L17.9853 27.8995C18.058 27.9722 18.1338 28.0406 18.2122 28.1046L19.4763 26.5547ZM20.8137 26.4853C20.448 26.851 19.8683 26.8744 19.4763 26.5547L18.2122 28.1046C19.3914 29.0663 21.1291 28.9983 22.2279 27.8995L20.8137 26.4853ZM26.612 20.687L20.8137 26.4853L22.2279 27.8995L28.0262 22.1012L26.612 20.687ZM26.612 15.313C28.096 16.797 28.096 19.203 26.612 20.687L28.0262 22.1012C30.2912 19.8362 30.2912 16.1638 28.0262 13.8988L26.612 15.313ZM21.238 15.313C22.722 13.829 25.128 13.829 26.612 15.313L28.0262 13.8988C25.7612 11.6337 22.0888 11.6337 19.8238 13.8988L21.238 15.313ZM20.8137 15.7373L21.238 15.313L19.8238 13.8988L19.3995 14.323L20.8137 15.7373ZM18.9752 15.313L19.3995 15.7373L20.8137 14.323L20.3894 13.8988L18.9752 15.313ZM13.6012 15.313C15.0852 13.829 17.4912 13.829 18.9752 15.313L20.3894 13.8988C18.1244 11.6337 14.452 11.6337 12.187 13.8988L13.6012 15.313Z" fill="#F8F9FA" mask="url(#path-3-inside-1_795_31341)"/>
<defs>
<filter id="filter0_b_795_31341" x="-2" y="-2" width="44" height="44" filterUnits="userSpaceOnUse" color-interpolation-filters="sRGB">
<feFlood flood-opacity="0" result="BackgroundImageFix"/>
<feGaussianBlur in="BackgroundImage" stdDeviation="5"/>
<feComposite in2="SourceAlpha" operator="in" result="effect1_backgroundBlur_795_31341"/>
<feBlend mode="normal" in="SourceGraphic" in2="effect1_backgroundBlur_795_31341" result="shape"/>
</filter>
</defs>
</svg>
