<svg width="253" height="80" viewBox="0 0 253 80" fill="none" xmlns="http://www.w3.org/2000/svg">
<path d="M234 0H19C18.4 0 17.6 0 16.8 0C16.2 0 15.6 0 15 0C13.6 0 12.4 0.2 11 0.4C9.6 0.6 8.4 1 7.2 1.6C6 2.2 5 3 4 4C3 5 2.2 6 1.6 7.2C1 8.4 0.6 9.8 0.4 11C0.2 12.4 0 13.8 0 15C0 15.6 0 16.2 0 16.8C0 17.6 0 18.2 0 19V60.8C0 61.6 0 62.2 0 63C0 63.6 0 64.2 0 64.8C0 66.2 0.2 67.4 0.4 68.8C0.6 70.2 1 71.4 1.6 72.6C2.2 74 3 75 4 76C5 77 6 77.8 7.2 78.4C8.4 79 9.6 79.4 11 79.6C12.4 79.8 13.6 80 15 80C15.6 80 16.2 80 16.8 80C17.6 80 18.2 80 19 80H234C234.8 80 235.4 80 236.2 80C236.8 80 237.4 80 238 80C239.4 80 240.6 79.8 242 79.6C243.4 79.4 244.6 79 245.8 78.4C247 77.8 248 77 249 76C250 75 250.8 74 251.4 72.8C252 71.6 252.4 70.4 252.6 69C252.8 67.6 253 66.4 253 65C253 64.4 253 63.8 253 63.2C253 62.4 253 61.8 253 61V19C253 18.2 253 17.6 253 16.8C253 16.2 253 15.6 253 15C253 13.6 252.8 12.4 252.6 11C252.4 9.6 252 8.4 251.4 7.2C250.8 6 250 5 249 4C248 3 247 2.2 245.8 1.6C244.6 1 243.4 0.6 242 0.4C240.6 0.2 239.4 0 238 0C237.4 0 236.8 0 236.2 0C235.4 0 234.6 0 234 0Z" fill="#B7B7B7"/>
<path d="M16.8001 78.1998C16.2001 78.1998 15.6001 78.1998 15.0001 78.1998C13.8001 78.1998 12.6001 78.1998 11.2001 77.7998C10.0001 77.5998 8.8001 77.1998 7.8001 76.7998C6.8001 76.1998 5.8001 75.5998 5.0001 74.7998C4.2001 73.9998 3.4001 72.9998 3.0001 71.9998C2.4001 70.9998 2.2001 69.9998 2.0001 68.5998C1.8001 67.1998 1.6001 65.7998 1.6001 64.7998C1.6001 64.3998 1.6001 62.9998 1.6001 62.9998V16.7998C1.6001 16.7998 1.6001 15.3998 1.6001 14.9998C1.6001 13.9998 1.6001 12.5998 2.0001 11.1998C2.4001 10.1998 2.6001 8.9998 3.2001 7.9998C3.8001 6.9998 4.4001 5.9998 5.2001 5.1998C6.0001 4.3998 7.0001 3.7998 8.0001 3.1998C9.0001 2.5998 10.2001 2.3998 11.4001 2.1998C12.6001 1.7998 14.0001 1.7998 15.0001 1.7998H16.8001H236H237.8C238.8 1.7998 240.2 1.7998 241.6 2.1998C242.8 2.3998 243.8 2.7998 245 3.1998C246 3.7998 247 4.3998 247.8 5.1998C248.6 5.9998 249.4 6.9998 249.8 7.9998C250.4 8.9998 250.6 10.1998 250.8 11.1998C251 12.3998 251.2 13.7998 251.2 14.9998C251.2 15.5998 251.2 16.1998 251.2 16.7998C251.2 17.5998 251.2 18.1998 251.2 18.9998V60.7998C251.2 61.5998 251.2 62.1998 251.2 62.9998C251.2 63.5998 251.2 64.1998 251.2 64.7998C251.2 65.9998 251 67.1998 250.8 68.5998C250.6 69.7998 250.2 70.9998 249.8 71.9998C249.2 72.9998 248.6 73.9998 247.8 74.7998C247 75.5998 246 76.3998 245 76.7998C244 77.3998 243 77.5998 241.6 77.7998C240.4 77.9998 239 77.9998 237.8 78.1998C237.2 78.1998 236.6 78.1998 236 78.1998H233.8H16.8001Z" fill="#000001"/>
<path d="M49.5999 40.5999C49.5999 34.9999 54.1999 32.3999 54.3999 32.1999C51.7999 28.3999 47.7999 27.9999 46.3999 27.7999C42.9999 27.3999 39.7999 29.7999 37.9999 29.7999C36.1999 29.7999 33.5999 27.7999 30.7999 27.7999C27.1999 27.7999 23.7999 29.9999 21.7999 33.1999C17.9999 39.7999 20.7999 49.7999 24.5999 55.1999C26.3999 57.7999 28.5999 60.7999 31.3999 60.7999C34.1999 60.5998 35.1999 58.9998 38.5999 58.9998C41.9999 58.9998 42.7999 60.7999 45.7999 60.7999C48.7999 60.7999 50.5999 58.1999 52.3999 55.3999C54.5999 52.3999 55.3999 49.3999 55.3999 49.1999C55.3999 49.3999 49.5999 47.1999 49.5999 40.5999Z" fill="white"/>
<path d="M44 24.3999C45.4 22.5999 46.6 19.9999 46.2 17.3999C44 17.3999 41.4 18.7999 39.8 20.7999C38.4 22.3999 37.2 24.9999 37.6 27.5999C40 27.5999 42.6 26.1999 44 24.3999Z" fill="white"/>
<path d="M71.3999 29.3999V19.1999H67.5999V17.3999H76.9999V18.9999H73.1999V29.1999H71.3999V29.3999Z" fill="white"/>
<path d="M85.5999 27C85.1999 28.6 83.7999 29.6 81.5999 29.6C78.9999 29.6 77.3999 27.8 77.3999 25C77.3999 22.2 78.9999 20.2 81.5999 20.2C84.1999 20.2 85.5999 22 85.5999 24.8V25.4H79.1999C79.1999 27 80.1999 28 81.5999 28C82.5999 28 83.3999 27.6 83.7999 27H85.5999ZM79.1999 24H83.7999C83.7999 22.6 82.7999 21.6 81.5999 21.6C80.1999 21.8 79.3999 22.6 79.1999 24ZM80.5999 18.8L82.5999 16H84.5999L82.1999 18.8H80.5999Z" fill="white"/>
<path d="M88.2 16.7998H90V29.3998H88.2V16.7998Z" fill="white"/>
<path d="M100.4 27C100 28.6 98.6 29.6 96.4 29.6C93.8 29.6 92.2 27.8 92.2 25C92.2 22.2 93.8 20.2 96.4 20.2C99 20.2 100.4 22 100.4 24.8V25.4H94C94 27 95 28 96.4 28C97.4 28 98.2 27.6 98.6 27H100.4ZM94.2 24H98.8C98.8 22.6 97.8 21.6 96.6 21.6C95.2 21.8 94.2 22.6 94.2 24ZM95.4 18.8L97.4 16H99.4L97 18.8H95.4Z" fill="white"/>
<path d="M108.8 23.4002C108.6 22.6002 107.8 21.8002 106.6 21.8002C105.2 21.8002 104.2 23.0002 104.2 24.8002C104.2 26.8002 105.2 28.0002 106.6 28.0002C107.8 28.0002 108.4 27.4002 108.8 26.6002H110.6C110.4 28.4002 109 29.6002 106.8 29.6002C104.2 29.6002 102.6 27.8002 102.6 24.8002C102.6 22.0002 104.2 20.2002 106.8 20.2002C109 20.2002 110.4 21.6002 110.6 23.4002H108.8Z" fill="white"/>
<path d="M112.8 16.7998H114.6V21.7998H114.8C115.2 20.7998 116.2 20.1998 117.6 20.1998C119.6 20.1998 120.8 21.3998 120.8 23.5998V29.3998H119V23.9998C119 22.5998 118.4 21.7998 117 21.7998C115.6 21.7998 114.8 22.7998 114.8 23.9998V29.1998H113V16.7998H112.8Z" fill="white"/>
<path d="M122.8 26.8002C122.8 25.2002 124 24.2002 126.2 24.2002L128.6 24.0002V23.2002C128.6 22.2002 128 21.8002 126.8 21.8002C125.8 21.8002 125.2 22.2002 125 22.8002H123.2C123.4 21.2002 124.8 20.2002 126.8 20.2002C129 20.2002 130.4 21.4002 130.4 23.2002V29.4002H128.6V28.2002H128.4C127.8 29.2002 126.8 29.6002 125.6 29.6002C124.2 29.6002 122.8 28.6002 122.8 26.8002ZM128.6 26.0002V25.2002L126.4 25.4002C125.2 25.4002 124.6 26.0002 124.6 26.6002C124.6 27.4002 125.4 27.8002 126.2 27.8002C127.6 28.0002 128.6 27.2002 128.6 26.0002Z" fill="white"/>
<path d="M133.2 20.4002H135V21.8002H135.2C135.4 21.0002 136.4 20.2002 137.6 20.2002C137.8 20.2002 138.2 20.2002 138.4 20.2002V22.0002C138.2 22.0002 137.8 21.8002 137.4 21.8002C136 21.8002 135.2 22.6002 135.2 24.0002V29.4002H133.4V20.4002H133.2Z" fill="white"/>
<path d="M140 30.3999H141.8C142 30.9999 142.8 31.3999 144 31.3999C145.4 31.3999 146.4 30.5999 146.4 29.5999V27.7999H146C145.4 28.7999 144.4 29.3999 143.2 29.3999C141 29.3999 139.4 27.5999 139.4 24.9999C139.4 22.1999 140.8 20.3999 143.2 20.3999C144.4 20.3999 145.6 20.9999 146 21.9999H146.2V20.5999H148V29.5999C148 31.5999 146.4 32.9999 143.8 32.9999C141.6 32.7999 140.2 31.7999 140 30.3999ZM146.2 24.7999C146.2 22.9999 145.2 21.7999 143.8 21.7999C142.2 21.7999 141.4 22.9999 141.4 24.7999C141.4 26.5999 142.2 27.7999 143.8 27.7999C145.4 27.7999 146.2 26.5999 146.2 24.7999Z" fill="white"/>
<path d="M158.4 27.0002C158 28.6002 156.6 29.6002 154.4 29.6002C151.8 29.6002 150.2 27.8002 150.2 25.0002C150.2 22.2002 151.8 20.2002 154.4 20.2002C157 20.2002 158.4 22.0002 158.4 24.8002V25.4002H152C152 27.0002 153 28.0002 154.4 28.0002C155.4 28.0002 156.2 27.6002 156.6 27.0002H158.4ZM152.2 24.0002H156.8C156.8 22.6002 155.8 21.6002 154.6 21.6002C153.2 21.8002 152.2 22.6002 152.2 24.0002Z" fill="white"/>
<path d="M161 20.4002H162.8V21.8002H163C163.2 21.0002 164.2 20.2002 165.4 20.2002C165.6 20.2002 166 20.2002 166.2 20.2002V22.0002C166 22.0002 165.6 21.8002 165.2 21.8002C163.8 21.8002 163 22.6002 163 24.0002V29.4002H161.2V20.4002H161Z" fill="white"/>
<path d="M172.4 24.7998C172.4 21.9998 173.8 20.1998 176.2 20.1998C177.4 20.1998 178.4 20.7998 179 21.7998H179.2V16.7998H181V29.3998H179.2V27.9998H179C178.4 28.9998 177.4 29.5998 176.2 29.5998C173.8 29.5998 172.4 27.7998 172.4 24.7998ZM174.2 24.7998C174.2 26.7998 175.2 27.7998 176.6 27.7998C178 27.7998 179 26.5998 179 24.7998C179 22.9998 178 21.7998 176.6 21.7998C175.2 21.7998 174.2 22.9998 174.2 24.7998Z" fill="white"/>
<path d="M183.2 26.8002C183.2 25.2002 184.4 24.2002 186.6 24.2002L189 24.0002V23.2002C189 22.2002 188.4 21.8002 187.2 21.8002C186.2 21.8002 185.6 22.2002 185.4 22.8002H183.6C183.8 21.2002 185.2 20.2002 187.2 20.2002C189.4 20.2002 190.8 21.4002 190.8 23.2002V29.4002H189V28.2002H188.8C188.2 29.2002 187.2 29.6002 186 29.6002C184.4 29.6002 183.2 28.6002 183.2 26.8002ZM189 26.0002V25.2002L186.8 25.4002C185.6 25.4002 185 26.0002 185 26.6002C185 27.4002 185.8 27.8002 186.6 27.8002C188 28.0002 189 27.2002 189 26.0002Z" fill="white"/>
<path d="M193.6 20.4002H195.4V21.8002H195.6C196 20.8002 197 20.2002 198.2 20.2002C200.2 20.2002 201.4 21.4002 201.4 23.6002V29.4002H199.6V24.0002C199.6 22.6002 199 21.8002 197.6 21.8002C196.2 21.8002 195.4 22.6002 195.4 24.0002V29.2002H193.6V20.4002Z" fill="white"/>
<path d="M207.2 20.2002C209.2 20.2002 210.6 21.2002 210.8 22.8002H209C208.8 22.2002 208.2 21.8002 207.2 21.8002C206.2 21.8002 205.4 22.2002 205.4 23.0002C205.4 23.6002 205.8 23.8002 206.8 24.2002L208.2 24.6002C210 25.0002 210.8 25.8002 210.8 27.0002C210.8 28.6002 209.2 29.8002 207 29.8002C204.8 29.8002 203.4 28.8002 203.4 27.2002H205.2C205.4 27.8002 206 28.4002 207.2 28.4002C208.4 28.4002 209 28.0002 209 27.2002C209 26.6002 208.6 26.4002 207.6 26.2002L206 25.8002C204.2 25.4002 203.4 24.6002 203.4 23.2002C203.8 21.4002 205.2 20.2002 207.2 20.2002Z" fill="white"/>
<path d="M70.3999 36.1997H74.1999V60.9997H70.3999V36.1997Z" fill="white"/>
<path d="M78.5999 45.1997L80.5999 36.1997H84.1999L81.7999 45.1997H78.5999Z" fill="white"/>
<path d="M98.1999 54.1997H88.7999L86.5999 60.9997H82.5999L91.5999 36.1997H95.7999L104.8 60.9997H100.8L98.1999 54.1997ZM89.7999 51.1997H97.3999L93.7999 40.3997H93.5999L89.7999 51.1997Z" fill="white"/>
<path d="M124 52C124 57.6 121 61.2 116.4 61.2C113.8 61.2 111.8 60 110.8 58V67H107V43H110.6V46C111.6 44 113.8 42.8 116.4 42.8C121 42.6 124 46.4 124 52ZM120.2 52C120.2 48.4 118.4 46 115.4 46C112.6 46 110.6 48.4 110.6 52C110.6 55.6 112.6 58 115.4 58C118.2 58 120.2 55.6 120.2 52Z" fill="white"/>
<path d="M144 52C144 57.6 141 61.2 136.4 61.2C133.8 61.2 131.8 60 130.8 58V67H127V43H130.6V46C131.6 44 133.8 42.8 136.4 42.8C141 42.6 144 46.4 144 52ZM140.2 52C140.2 48.4 138.4 46 135.4 46C132.6 46 130.6 48.4 130.6 52C130.6 55.6 132.6 58 135.4 58C138.2 58 140.2 55.6 140.2 52Z" fill="white"/>
<path d="M157.2 53.9998C157.4 56.3998 159.8 57.9998 163.2 57.9998C166.4 57.9998 168.6 56.3998 168.6 54.1998C168.6 52.1998 167.2 51.1998 164 50.3998L160.8 49.5998C156 48.5998 154 46.3998 154 42.9998C154 38.7998 157.8 35.7998 163 35.7998C168.2 35.7998 171.8 38.7998 172 42.9998H168.2C168 40.5998 166 38.9998 163 38.9998C160 38.9998 158 40.5998 158 42.7998C158 44.5998 159.4 45.5998 162.6 46.3998L165.4 46.9998C170.4 48.1998 172.6 50.1998 172.6 53.7998C172.6 58.3998 168.8 61.3998 163 61.3998C157.4 61.3998 153.8 58.5998 153.6 53.9998H157.2Z" fill="white"/>
<path d="M180.4 38.5996V42.7996H183.8V45.7996H180.4V55.7996C180.4 57.3996 181 57.9996 182.6 57.9996C183 57.9996 183.6 57.9996 183.8 57.9996V60.9996C183.4 61.1996 182.6 61.1996 181.8 61.1996C178.2 61.1996 176.8 59.7996 176.8 56.3996V45.9996H174V42.9996H176.6V38.7996H180.4V38.5996Z" fill="white"/>
<path d="M185.8 51.9998C185.8 46.3998 189.2 42.7998 194.4 42.7998C199.6 42.7998 203 46.3998 203 51.9998C203 57.7998 199.6 61.1998 194.4 61.1998C189.2 61.1998 185.8 57.5998 185.8 51.9998ZM199.2 51.9998C199.2 47.9998 197.4 45.7998 194.4 45.7998C191.4 45.7998 189.6 47.9998 189.6 51.9998C189.6 55.9998 191.4 58.1998 194.4 58.1998C197.4 58.1998 199.2 55.7998 199.2 51.9998Z" fill="white"/>
<path d="M206 42.7998H209.6V45.9998C210.2 43.9998 211.8 42.7998 214 42.7998C214.6 42.7998 215 42.7998 215.2 42.9998V46.3998C215 46.1998 214.2 46.1998 213.6 46.1998C211.2 46.1998 209.8 47.7998 209.8 50.3998V61.1998H206V42.7998Z" fill="white"/>
<path d="M232.4 55.5996C232 58.7996 228.6 61.1996 224.6 61.1996C219.4 61.1996 216 57.5996 216 51.9996C216 46.3996 219.2 42.5996 224.4 42.5996C229.4 42.5996 232.6 45.9996 232.6 51.5996V52.7996H219.8V52.9996C219.8 55.9996 221.8 58.1996 224.6 58.1996C226.6 58.1996 228.2 57.1996 228.8 55.5996H232.4ZM219.8 50.1996H228.8C228.8 47.3996 227 45.5996 224.4 45.5996C222 45.5996 220 47.5996 219.8 50.1996Z" fill="white"/>
</svg>
