<svg width="270" height="80" viewBox="0 0 270 80" fill="none" xmlns="http://www.w3.org/2000/svg">
<path d="M260 0H10C4.47715 0 0 4.47715 0 10V70C0 75.5229 4.47715 80 10 80H260C265.523 80 270 75.5229 270 70V10C270 4.47715 265.523 0 260 0Z" fill="black"/>
<path d="M260 1.6C262.228 1.6 264.364 2.485 265.94 4.0603C267.515 5.63561 268.4 7.77218 268.4 10V70C268.4 72.2278 267.515 74.3644 265.94 75.9397C264.364 77.515 262.228 78.4 260 78.4H10C7.77218 78.4 5.63561 77.515 4.0603 75.9397C2.485 74.3644 1.6 72.2278 1.6 70V10C1.6 7.77218 2.485 5.63561 4.0603 4.0603C5.63561 2.485 7.77218 1.6 10 1.6H260ZM260 0H10C7.34784 0 4.8043 1.05357 2.92893 2.92893C1.05357 4.8043 0 7.34784 0 10V70C0 72.6522 1.05357 75.1957 2.92893 77.0711C4.8043 78.9464 7.34784 80 10 80H260C262.652 80 265.196 78.9464 267.071 77.0711C268.946 75.1957 270 72.6522 270 70V10C270 7.34784 268.946 4.8043 267.071 2.92893C265.196 1.05357 262.652 0 260 0Z" fill="#A6A6A6"/>
<path d="M136.28 43.4998C134.595 43.5038 132.949 44.0074 131.55 44.9468C130.151 45.8863 129.062 47.2195 128.421 48.7779C127.78 50.3362 127.615 52.0497 127.948 53.7016C128.28 55.3535 129.095 56.8698 130.29 58.0585C131.484 59.2472 133.004 60.0551 134.658 60.38C136.311 60.7049 138.024 60.5321 139.579 59.8836C141.134 59.2351 142.463 58.14 143.395 56.7367C144.328 55.3334 144.824 53.6849 144.82 51.9998C144.837 50.8757 144.626 49.7598 144.203 48.7185C143.779 47.6773 143.15 46.732 142.353 45.9389C141.556 45.1458 140.608 44.5211 139.564 44.1021C138.521 43.6831 137.404 43.4783 136.28 43.4998ZM136.28 57.1599C135.247 57.2321 134.217 56.9919 133.322 56.4706C132.428 55.9493 131.711 55.171 131.264 54.2367C130.818 53.3025 130.663 52.2556 130.82 51.2321C130.976 50.2087 131.437 49.256 132.142 48.4979C132.847 47.7398 133.764 47.2114 134.774 46.9814C135.783 46.7514 136.839 46.8303 137.803 47.208C138.767 47.5857 139.595 48.2447 140.179 49.0993C140.764 49.9538 141.078 50.9645 141.08 51.9998C141.112 52.6559 141.013 53.3117 140.788 53.9287C140.562 54.5457 140.216 55.1113 139.768 55.5922C139.321 56.0731 138.782 56.4596 138.183 56.7288C137.584 56.9981 136.937 57.1446 136.28 57.1599ZM117.64 43.4998C115.955 43.5038 114.309 44.0074 112.91 44.9468C111.511 45.8863 110.422 47.2195 109.781 48.7779C109.14 50.3362 108.975 52.0497 109.308 53.7016C109.64 55.3535 110.455 56.8698 111.65 58.0585C112.844 59.2472 114.364 60.0551 116.018 60.38C117.671 60.7049 119.384 60.5321 120.939 59.8836C122.494 59.2351 123.823 58.14 124.755 56.7367C125.688 55.3334 126.184 53.6849 126.18 51.9998C126.196 50.8757 125.986 49.7598 125.563 48.7185C125.139 47.6773 124.51 46.732 123.713 45.9389C122.916 45.1458 121.968 44.5211 120.924 44.1021C119.881 43.6831 118.764 43.4783 117.64 43.4998ZM117.64 57.1599C116.607 57.2321 115.577 56.9919 114.682 56.4706C113.788 55.9493 113.071 55.171 112.624 54.2367C112.178 53.3025 112.023 52.2556 112.18 51.2321C112.336 50.2087 112.797 49.256 113.502 48.4979C114.207 47.7398 115.124 47.2114 116.134 46.9814C117.143 46.7514 118.199 46.8303 119.163 47.208C120.127 47.5857 120.955 48.2447 121.539 49.0993C122.124 49.9538 122.438 50.9645 122.44 51.9998C122.472 52.6559 122.373 53.3117 122.148 53.9287C121.922 54.5457 121.576 55.1113 121.128 55.5922C120.681 56.0731 120.142 56.4596 119.543 56.7288C118.944 56.9981 118.297 57.1446 117.64 57.1599ZM95.4802 46.1199V49.7199H104.12C103.985 51.4155 103.28 53.0154 102.12 54.2599C101.254 55.1429 100.211 55.8341 99.0604 56.2889C97.9097 56.7437 96.6764 56.9518 95.4402 56.8999C92.8941 56.8999 90.4523 55.8884 88.652 54.0881C86.8516 52.2877 85.8402 49.8459 85.8402 47.2999C85.8402 44.7538 86.8516 42.312 88.652 40.5116C90.4523 38.7113 92.8941 37.6998 95.4402 37.6998C97.8811 37.6635 100.238 38.5905 102 40.2798L104.54 37.7398C103.348 36.5609 101.933 35.6316 100.377 35.0066C98.8214 34.3816 97.1566 34.0733 95.4802 34.0998C93.7022 34.0306 91.9285 34.3211 90.2654 34.9538C88.6024 35.5865 87.0841 36.5484 85.8017 37.7819C84.5193 39.0154 83.4991 40.495 82.8022 42.1322C82.1053 43.7695 81.7461 45.5305 81.7461 47.3098C81.7461 49.0892 82.1053 50.8502 82.8022 52.4875C83.4991 54.1247 84.5193 55.6043 85.8017 56.8378C87.0841 58.0713 88.6024 59.0332 90.2654 59.6659C91.9285 60.2986 93.7022 60.589 95.4802 60.5198C97.191 60.5882 98.897 60.2938 100.486 59.6562C102.075 59.0185 103.511 58.0519 104.7 56.8199C106.8 54.5127 107.92 51.4782 107.82 48.3598C107.827 47.6093 107.767 46.8596 107.64 46.1199H95.4802ZM186.1 48.9198C185.579 47.3853 184.603 46.0454 183.303 45.0775C182.003 44.1097 180.44 43.5595 178.82 43.4998C177.726 43.4977 176.643 43.72 175.639 44.1529C174.634 44.5859 173.729 45.2203 172.979 46.0169C172.229 46.8136 171.651 47.7555 171.279 48.7846C170.908 49.8137 170.752 50.908 170.82 51.9998C170.803 53.8256 171.377 55.6078 172.456 57.0804C173.536 58.553 175.063 59.6368 176.809 60.1701C178.555 60.7034 180.427 60.6575 182.145 60.0393C183.863 59.421 185.334 58.2636 186.34 56.7398L183.44 54.7398C183.008 55.4604 182.395 56.0554 181.661 56.4659C180.928 56.8764 180.1 57.088 179.26 57.0799C178.393 57.1156 177.536 56.8884 176.801 56.4279C176.065 55.9675 175.486 55.2953 175.14 54.4999L186.52 49.7999L186.1 48.9198ZM174.5 51.7599C174.46 51.1386 174.543 50.5155 174.747 49.9271C174.95 49.3386 175.269 48.7967 175.684 48.3329C176.099 47.8691 176.603 47.4929 177.166 47.2262C177.728 46.9595 178.338 46.8078 178.96 46.7798C179.605 46.7405 180.246 46.8922 180.805 47.216C181.363 47.5397 181.814 48.0211 182.1 48.5998L174.5 51.7599ZM165.26 59.9999H169V34.9998H165.26V59.9999ZM159.14 45.3998H159C158.441 44.7636 157.752 44.2555 156.979 43.9103C156.206 43.5651 155.367 43.391 154.52 43.3998C152.335 43.5058 150.273 44.4487 148.764 46.033C147.255 47.6173 146.413 49.7217 146.413 51.9099C146.413 54.0981 147.255 56.2024 148.764 57.7867C150.273 59.371 152.335 60.3139 154.52 60.4198C155.368 60.4369 156.209 60.2664 156.984 59.9207C157.758 59.575 158.447 59.0625 159 58.4198H159.14V59.6399C159.14 62.8999 157.4 64.6399 154.6 64.6399C153.665 64.6193 152.757 64.3213 151.991 63.7835C151.225 63.2458 150.637 62.4927 150.3 61.6199L147.06 62.9599C147.659 64.4643 148.701 65.7516 150.047 66.6515C151.393 67.5514 152.981 68.0216 154.6 67.9999C158.98 67.9999 162.6 65.4199 162.6 59.1399V43.9998H159.14V45.3998ZM154.84 57.1599C153.53 57.0782 152.3 56.5 151.401 55.5432C150.502 54.5863 150.001 53.3228 150.001 52.0099C150.001 50.6969 150.502 49.4334 151.401 48.4765C152.3 47.5197 153.53 46.9415 154.84 46.8598C155.481 46.8875 156.109 47.0437 156.688 47.3191C157.267 47.5946 157.784 47.9836 158.21 48.4632C158.635 48.9428 158.96 49.503 159.164 50.1106C159.369 50.7181 159.449 51.3606 159.4 51.9998C159.455 52.6412 159.379 53.287 159.177 53.8982C158.974 54.5093 158.65 55.0731 158.224 55.5554C157.798 56.0378 157.278 56.4286 156.697 56.7044C156.115 56.9802 155.483 57.1351 154.84 57.1599ZM203.62 34.9998H194.66V59.9999H198.4V50.5198H203.62C204.686 50.5964 205.756 50.4526 206.764 50.0973C207.772 49.742 208.696 49.1829 209.478 48.4548C210.26 47.7268 210.884 46.8453 211.311 45.8655C211.738 44.8857 211.958 43.8285 211.958 42.7598C211.958 41.6912 211.738 40.634 211.311 39.6542C210.884 38.6744 210.26 37.7929 209.478 37.0649C208.696 36.3368 207.772 35.7777 206.764 35.4224C205.756 35.0671 204.686 34.9233 203.62 34.9998ZM203.62 46.9998H198.4V38.4798H203.7C204.262 38.4798 204.819 38.5906 205.338 38.8056C205.857 39.0207 206.329 39.336 206.727 39.7334C207.124 40.1309 207.439 40.6027 207.654 41.122C207.869 41.6412 207.98 42.1978 207.98 42.7598C207.98 43.3219 207.869 43.8785 207.654 44.3977C207.439 44.917 207.124 45.3888 206.727 45.7863C206.329 46.1837 205.857 46.499 205.338 46.7141C204.819 46.9291 204.262 47.0398 203.7 47.0398L203.62 46.9998ZM226.7 43.4198C225.338 43.3359 223.981 43.6529 222.798 44.3319C221.614 45.0108 220.655 46.0218 220.04 47.2398L223.34 48.6199C223.674 48.0187 224.174 47.5269 224.781 47.2039C225.388 46.8809 226.075 46.7406 226.76 46.7999C227.235 46.7444 227.716 46.7841 228.175 46.9165C228.635 47.0489 229.063 47.2715 229.435 47.5713C229.808 47.871 230.117 48.2419 230.344 48.6623C230.571 49.0827 230.713 49.5442 230.76 50.0198V50.2599C229.557 49.6277 228.219 49.2982 226.86 49.2999C223.3 49.2999 219.66 51.2999 219.66 54.9399C219.695 55.7135 219.886 56.4723 220.22 57.1709C220.554 57.8696 221.025 58.494 221.605 59.0071C222.186 59.5201 222.863 59.9113 223.597 60.1574C224.332 60.4036 225.108 60.4996 225.88 60.4399C226.819 60.4918 227.754 60.2932 228.591 59.8644C229.427 59.4356 230.134 58.7921 230.64 57.9999H230.76V59.9999H234.36V50.3798C234.36 45.9998 231.04 43.4598 226.78 43.4598L226.7 43.4198ZM226.24 57.1199C225.02 57.1199 223.32 56.4999 223.32 54.9999C223.32 52.9998 225.44 52.3198 227.32 52.3198C228.508 52.2905 229.682 52.5806 230.72 53.1599C230.595 54.246 230.08 55.2498 229.271 55.9853C228.462 56.7208 227.413 57.1381 226.32 57.1599L226.24 57.1199ZM247.48 43.9998L243.2 54.8398H243.08L238.64 43.9998H234.64L241.3 59.1599L237.5 67.5799H241.4L251.64 43.9998H247.48ZM213.88 59.9999H217.6V34.9998H213.88V59.9999Z" fill="white"/>
<path d="M20.8802 15.0799C20.2212 15.8592 19.8849 16.8609 19.9402 17.8799V62.1199C19.8722 63.1407 20.21 64.147 20.8802 64.9199L21.0202 65.0799L45.8002 40.2999V39.6999L21.0202 14.9399L20.8802 15.0799Z" fill="url(#paint0_linear_1797_4985)"/>
<path d="M54.0003 48.5599L45.8003 40.2999V39.6999L54.0003 31.4399L54.1803 31.5599L64.0003 37.1199C66.8003 38.6999 66.8003 41.2999 64.0003 42.8999L54.2203 48.4599L54.0003 48.5599Z" fill="url(#paint1_linear_1797_4985)"/>
<path d="M54.2404 48.44L45.8004 40L20.8804 64.92C21.4455 65.4231 22.1689 65.7125 22.9251 65.738C23.6813 65.7636 24.4225 65.5237 25.0204 65.06L54.2404 48.44Z" fill="url(#paint2_linear_1797_4985)"/>
<path d="M54.2404 31.5599L25.0204 14.9599C24.4264 14.4898 23.6857 14.2441 22.9285 14.266C22.1713 14.2879 21.4461 14.5762 20.8804 15.0799L45.8004 39.9999L54.2404 31.5599Z" fill="url(#paint3_linear_1797_4985)"/>
<path opacity="0.2" d="M54.0004 48.2598L25.0204 64.7598C24.4443 65.1946 23.7421 65.4298 23.0204 65.4298C22.2986 65.4298 21.5965 65.1946 21.0204 64.7598L20.8804 64.8998L21.0204 65.0598C21.5965 65.4946 22.2986 65.7298 23.0204 65.7298C23.7421 65.7298 24.4443 65.4946 25.0204 65.0598L54.2404 48.4398L54.0004 48.2598Z" fill="black"/>
<path opacity="0.12" d="M20.8802 64.6398C20.2378 63.8465 19.923 62.8377 20.0002 61.8198V62.1198C19.9322 63.1406 20.27 64.1469 20.9402 64.9198L21.0802 64.7798L20.8802 64.6398Z" fill="black"/>
<path opacity="0.12" d="M64 42.6L54 48.26L54.18 48.44L64 42.88C64.5797 42.6349 65.0825 42.238 65.4556 41.7312C65.8287 41.2244 66.0582 40.6263 66.12 40C65.995 40.5691 65.738 41.1009 65.3697 41.5525C65.0015 42.0042 64.5323 42.3629 64 42.6Z" fill="black"/>
<path opacity="0.25" d="M25.0204 15.24L64.0004 37.4C64.5327 37.637 65.0019 37.9958 65.3702 38.4474C65.7384 38.899 65.9954 39.4308 66.1204 40C66.0586 39.3736 65.8291 38.7756 65.456 38.2688C65.0829 37.7619 64.5801 37.3651 64.0004 37.12L25.0204 14.96C22.2404 13.36 19.9404 14.68 19.9404 17.88V18.18C20.0004 14.98 22.2404 13.66 25.0204 15.24Z" fill="white"/>
<path d="M82.5601 26.0002V14.0002H86.2201C87.0341 13.9608 87.8476 14.0877 88.6109 14.3731C89.3743 14.6585 90.0715 15.0964 90.6601 15.6602C91.2114 16.2369 91.6422 16.9177 91.9272 17.6629C92.2123 18.4081 92.3458 19.2027 92.3201 20.0002C92.3458 20.7976 92.2123 21.5922 91.9272 22.3374C91.6422 23.0826 91.2114 23.7635 90.6601 24.3402C90.0715 24.9039 89.3743 25.3418 88.6109 25.6272C87.8476 25.9126 87.0341 26.0395 86.2201 26.0002H82.5601ZM84.1001 24.5202H86.2201C86.8275 24.5755 87.4396 24.4965 88.0131 24.2889C88.5866 24.0813 89.1075 23.7501 89.5388 23.3189C89.97 22.8876 90.3012 22.3667 90.5088 21.7932C90.7164 21.2197 90.7954 20.6076 90.7401 20.0002C90.7918 19.3935 90.7104 18.7829 90.5015 18.2111C90.2926 17.6392 89.9614 17.1198 89.5309 16.6893C89.1004 16.2588 88.581 15.9276 88.0092 15.7187C87.4373 15.5099 86.8267 15.4284 86.2201 15.4802H84.1001V24.5202Z" fill="white" stroke="white" stroke-width="0.2" stroke-miterlimit="10"/>
<path d="M94.48 26V14H96V26H94.48Z" fill="white" stroke="white" stroke-width="0.2" stroke-miterlimit="10"/>
<path d="M102.14 26.2597C101.228 26.2449 100.341 25.9519 99.6 25.4197C98.7717 24.8537 98.1863 23.997 97.96 23.0197L99.36 22.4397C99.5316 23.0908 99.8937 23.6758 100.4 24.1197C100.878 24.5509 101.496 24.7927 102.14 24.7997C102.758 24.8204 103.365 24.63 103.86 24.2597C104.089 24.1023 104.276 23.8898 104.401 23.6416C104.527 23.3935 104.589 23.1178 104.58 22.8397C104.596 22.5407 104.539 22.2423 104.413 21.9705C104.288 21.6986 104.098 21.4615 103.86 21.2797C103.175 20.817 102.418 20.4723 101.62 20.2597C100.72 20.0286 99.8895 19.5825 99.2 18.9597C98.9329 18.7008 98.7222 18.3895 98.5811 18.0453C98.44 17.7012 98.3715 17.3316 98.38 16.9597C98.3804 16.5323 98.4715 16.1098 98.6473 15.7202C98.8232 15.3306 99.0797 14.9828 99.4 14.6997C100.124 14.1228 101.015 13.7938 101.94 13.7614C102.866 13.729 103.777 13.9948 104.54 14.5197C105.116 14.9305 105.549 15.5108 105.78 16.1797L104.38 16.7597C104.247 16.3446 103.989 15.9812 103.64 15.7197C103.204 15.3719 102.657 15.1942 102.1 15.2197C101.552 15.2108 101.016 15.3869 100.58 15.7197C100.386 15.8624 100.228 16.0493 100.12 16.2649C100.013 16.4805 99.9576 16.7186 99.96 16.9597C99.9573 17.1796 100.009 17.3969 100.11 17.5922C100.211 17.7875 100.359 17.955 100.54 18.0797C101.052 18.4585 101.628 18.7429 102.24 18.9197C102.744 19.0704 103.238 19.2507 103.72 19.4597C104.145 19.6548 104.548 19.8963 104.92 20.1797C105.315 20.4623 105.632 20.8408 105.84 21.2797C106.065 21.7612 106.174 22.2885 106.16 22.8197C106.169 23.3613 106.045 23.8968 105.8 24.3797C105.58 24.8175 105.249 25.1899 104.84 25.4597C104.449 25.7335 104.017 25.9428 103.56 26.0797C103.098 26.2092 102.62 26.2698 102.14 26.2597Z" fill="white" stroke="white" stroke-width="0.2" stroke-miterlimit="10"/>
<path d="M110 26.0001H108.46V14.0001H112.46C113.439 13.9833 114.386 14.3492 115.1 15.0201C115.453 15.3442 115.736 15.7382 115.929 16.1772C116.122 16.6162 116.221 17.0905 116.221 17.5701C116.221 18.0496 116.122 18.5239 115.929 18.9629C115.736 19.4019 115.453 19.7959 115.1 20.1201C114.386 20.7909 113.439 21.1569 112.46 21.1401H110V26.0001ZM110 19.6601H112.6C112.888 19.6705 113.174 19.6187 113.44 19.5082C113.706 19.3978 113.944 19.2313 114.14 19.0201C114.337 18.8332 114.493 18.6083 114.6 18.3591C114.707 18.1098 114.762 17.8413 114.762 17.5701C114.762 17.2988 114.707 17.0304 114.6 16.7811C114.493 16.5318 114.337 16.3069 114.14 16.1201C113.944 15.9089 113.706 15.7423 113.44 15.6319C113.174 15.5214 112.888 15.4697 112.6 15.4801H110V19.6601Z" fill="white" stroke="white" stroke-width="0.2" stroke-miterlimit="10"/>
<path d="M128 24.4399C127.422 25.018 126.737 25.4767 125.982 25.7896C125.227 26.1025 124.417 26.2635 123.6 26.2635C122.783 26.2635 121.974 26.1025 121.219 25.7896C120.464 25.4767 119.778 25.018 119.2 24.4399C118.069 23.238 117.44 21.65 117.44 19.9999C117.44 18.3498 118.069 16.7618 119.2 15.5599C119.778 14.9818 120.464 14.5232 121.219 14.2103C121.974 13.8974 122.783 13.7363 123.6 13.7363C124.417 13.7363 125.227 13.8974 125.982 14.2103C126.737 14.5232 127.422 14.9818 128 15.5599C128.571 16.1472 129.018 16.8424 129.317 17.6047C129.616 18.3671 129.76 19.1813 129.74 19.9999C129.769 20.8196 129.629 21.6365 129.33 22.4002C129.031 23.1639 128.578 23.8581 128 24.4399ZM120.34 23.4399C120.762 23.8776 121.268 24.2241 121.829 24.4581C122.39 24.692 122.993 24.8083 123.6 24.7999C124.208 24.812 124.812 24.6973 125.373 24.4631C125.935 24.229 126.441 23.8805 126.86 23.4399C127.723 22.5022 128.202 21.2743 128.202 19.9999C128.202 18.7255 127.723 17.4977 126.86 16.5599C126.441 16.1193 125.935 15.7709 125.373 15.5367C124.812 15.3026 124.208 15.1879 123.6 15.1999C122.993 15.1915 122.39 15.3078 121.829 15.5418C121.268 15.7757 120.762 16.1222 120.34 16.5599C119.49 17.5039 119.019 18.7294 119.019 19.9999C119.019 21.2704 119.49 22.4959 120.34 23.4399Z" fill="white" stroke="white" stroke-width="0.2" stroke-miterlimit="10"/>
<path d="M132 26V14H133.88L139.7 23.34V21.02V14H141.26V26H139.64L133.64 16.22V18.52V26H132Z" fill="white" stroke="white" stroke-width="0.2" stroke-miterlimit="10"/>
<path d="M144 26V14H145.54V26H144Z" fill="white" stroke="white" stroke-width="0.2" stroke-miterlimit="10"/>
<path d="M148.18 25.9997V13.9997H152.52C153.42 13.9907 154.29 14.3189 154.96 14.9197C155.294 15.2097 155.561 15.5696 155.74 15.974C155.92 16.3784 156.009 16.8173 156 17.2597C156.005 17.7984 155.852 18.3268 155.56 18.7797C155.265 19.2091 154.857 19.5483 154.38 19.7597C154.958 19.9571 155.465 20.3185 155.84 20.7997C156.208 21.2898 156.405 21.887 156.4 22.4997C156.41 22.9608 156.319 23.4184 156.132 23.8401C155.946 24.2618 155.668 24.6372 155.32 24.9397C154.626 25.5856 153.708 25.937 152.76 25.9197L148.18 25.9997ZM149.72 19.1397H152.52C152.782 19.1548 153.044 19.1105 153.287 19.0101C153.529 18.9097 153.746 18.7557 153.92 18.5597C154.259 18.2274 154.453 17.7745 154.46 17.2997C154.479 16.8234 154.314 16.3581 154 15.9997C153.832 15.8132 153.625 15.6662 153.393 15.5694C153.161 15.4726 152.911 15.4283 152.66 15.4397H149.72V19.1397ZM149.72 24.5197H152.84C153.111 24.5288 153.381 24.4779 153.63 24.3707C153.878 24.2636 154.101 24.1027 154.28 23.8997C154.626 23.5308 154.818 23.045 154.82 22.5397C154.808 22.0386 154.608 21.5604 154.26 21.1997C154.067 20.9973 153.834 20.8375 153.576 20.7307C153.318 20.6239 153.04 20.5725 152.76 20.5797H149.72V24.5197Z" fill="white" stroke="white" stroke-width="0.2" stroke-miterlimit="10"/>
<path d="M158.48 26V14H160V24.52H165.2V26H158.48Z" fill="white" stroke="white" stroke-width="0.2" stroke-miterlimit="10"/>
<path d="M174.16 15.48H168.7V19.28H173.62V20.72H168.7V24.52H174.16V26H167.16V14H174.16V15.48Z" fill="white" stroke="white" stroke-width="0.2" stroke-miterlimit="10"/>
<path d="M183.48 26.2597C182.562 26.2427 181.67 25.95 180.92 25.4197C180.1 24.8501 179.522 23.9939 179.3 23.0197L180.7 22.4397C180.872 23.0908 181.234 23.6758 181.74 24.1197C182.218 24.5509 182.837 24.7927 183.48 24.7997C184.098 24.8173 184.704 24.6271 185.2 24.2597C185.43 24.1023 185.616 23.8898 185.742 23.6416C185.867 23.3935 185.929 23.1178 185.92 22.8397C185.936 22.5407 185.879 22.2423 185.754 21.9705C185.628 21.6986 185.438 21.4615 185.2 21.2797C184.508 20.8176 183.745 20.473 182.94 20.2597C182.046 20.0286 181.222 19.5823 180.54 18.9597C180.269 18.7038 180.056 18.3931 179.914 18.0482C179.773 17.7033 179.707 17.3322 179.72 16.9597C179.721 16.5323 179.812 16.1098 179.988 15.7202C180.163 15.3306 180.42 14.9828 180.74 14.6997C181.465 14.1228 182.355 13.7938 183.281 13.7614C184.206 13.729 185.117 13.9948 185.88 14.5197C186.456 14.9305 186.89 15.5108 187.12 16.1797L185.72 16.7597C185.589 16.3387 185.321 15.9731 184.96 15.7197C184.533 15.3699 183.992 15.1916 183.44 15.2197C182.892 15.2108 182.356 15.3869 181.92 15.7197C181.724 15.8614 181.563 16.0476 181.452 16.263C181.341 16.4785 181.282 16.7172 181.28 16.9597C181.283 17.1787 181.336 17.3942 181.437 17.5887C181.538 17.7832 181.683 17.9514 181.86 18.0797C182.377 18.4504 182.952 18.7342 183.56 18.9197C184.071 19.0674 184.572 19.2478 185.06 19.4597C185.483 19.6594 185.885 19.9005 186.26 20.1797C186.655 20.4623 186.972 20.8408 187.18 21.2797C187.396 21.7643 187.505 22.2894 187.5 22.8197C187.509 23.3613 187.386 23.8968 187.14 24.3797C186.92 24.8175 186.589 25.1899 186.18 25.4597C185.79 25.7335 185.357 25.9428 184.9 26.0797C184.438 26.2092 183.96 26.2698 183.48 26.2597Z" fill="white" stroke="white" stroke-width="0.2" stroke-miterlimit="10"/>
<path d="M193.88 26.26C193.282 26.2854 192.685 26.1826 192.129 25.9584C191.574 25.7341 191.073 25.3937 190.66 24.96C189.821 24.0237 189.383 22.7958 189.44 21.54V14H190.98V21.6C190.939 22.4372 191.202 23.261 191.72 23.92C191.991 24.2188 192.326 24.453 192.7 24.6053C193.074 24.7576 193.477 24.8241 193.88 24.8C194.271 24.8324 194.663 24.7774 195.03 24.639C195.397 24.5006 195.728 24.2824 196 24C196.525 23.3438 196.795 22.5197 196.76 21.68V14H198.3V21.54C198.36 22.7927 197.93 24.0195 197.1 24.96C196.689 25.3969 196.189 25.7395 195.633 25.9639C195.077 26.1884 194.479 26.2894 193.88 26.26Z" fill="white" stroke="white" stroke-width="0.2" stroke-miterlimit="10"/>
<path d="M200.8 26.0001V14.0001H204.8C205.78 13.9833 206.727 14.3492 207.44 15.0201C207.804 15.338 208.093 15.7323 208.287 16.1748C208.48 16.6174 208.574 17.0972 208.56 17.5801C208.56 18.3941 208.269 19.1812 207.74 19.8001C207.229 20.4157 206.524 20.839 205.74 21.0001L209.1 26.0001H207.28L204 21.1401H202.3V26.0001H200.8ZM202.34 19.7001H204.82C205.405 19.7119 205.971 19.4969 206.4 19.1001C206.613 18.9086 206.781 18.6738 206.895 18.4116C207.009 18.1494 207.065 17.8659 207.06 17.5801C207.055 17.0382 206.848 16.5177 206.48 16.1201C206.283 15.9062 206.04 15.7382 205.771 15.6276C205.502 15.5171 205.211 15.4667 204.92 15.4801H202.34V19.7001Z" fill="white" stroke="white" stroke-width="0.2" stroke-miterlimit="10"/>
<defs>
<linearGradient id="paint0_linear_1797_4985" x1="43.6002" y1="17.4199" x2="10.0402" y2="50.9799" gradientUnits="userSpaceOnUse">
<stop stop-color="#00A0FF"/>
<stop offset="0.01" stop-color="#00A1FF"/>
<stop offset="0.26" stop-color="#00BEFF"/>
<stop offset="0.51" stop-color="#00D2FF"/>
<stop offset="0.76" stop-color="#00DFFF"/>
<stop offset="1" stop-color="#00E3FF"/>
</linearGradient>
<linearGradient id="paint1_linear_1797_4985" x1="67.6603" y1="39.9999" x2="19.2803" y2="39.9999" gradientUnits="userSpaceOnUse">
<stop stop-color="#FFE000"/>
<stop offset="0.41" stop-color="#FFBD00"/>
<stop offset="0.78" stop-color="#FFA500"/>
<stop offset="1" stop-color="#FF9C00"/>
</linearGradient>
<linearGradient id="paint2_linear_1797_4985" x1="49.6604" y1="44.6" x2="4.14036" y2="90.1" gradientUnits="userSpaceOnUse">
<stop stop-color="#FF3A44"/>
<stop offset="1" stop-color="#C31162"/>
</linearGradient>
<linearGradient id="paint3_linear_1797_4985" x1="14.6004" y1="0.359939" x2="34.9204" y2="20.6799" gradientUnits="userSpaceOnUse">
<stop stop-color="#32A071"/>
<stop offset="0.07" stop-color="#2DA771"/>
<stop offset="0.48" stop-color="#15CF74"/>
<stop offset="0.8" stop-color="#06E775"/>
<stop offset="1" stop-color="#00F076"/>
</linearGradient>
</defs>
</svg>
