<svg width="129" height="40" viewBox="0 0 129 40" fill="none" xmlns="http://www.w3.org/2000/svg">
<g clip-path="url(#clip0_922_3314)">
<path d="M24.1977 5.32996H19.4769C19.223 5.32996 19.0557 5.49718 19.0557 5.6644V24.7807L8.3968 9.51773V19.2388L19.056 34.5447C19.0979 34.6327 19.3062 34.6744 19.3937 34.6744H24.1977C24.4476 34.6744 24.6144 34.503 24.6144 34.3358V5.6644C24.6151 5.49718 24.4484 5.32996 24.1977 5.32996ZM5.22047 5.32996H0.375085C0.166732 5.32996 0 5.49718 0 5.6644V34.3345C0 34.5017 0.166732 34.6732 0.375085 34.6732H5.17984C5.43402 34.6732 5.601 34.5017 5.601 34.3345V5.51383L5.55938 5.45543C5.51776 5.3717 5.3047 5.32996 5.22047 5.32996Z" fill="white"/>
<path d="M71.7611 5.28796H61.8144C61.5645 5.28796 61.3977 5.45519 61.3977 5.62241V9.98162C61.3977 10.1488 61.5645 10.3161 61.8144 10.3161H66.5773V21.2399L72.1362 17.0407V5.62266C72.1362 5.45543 72.0123 5.28796 71.7611 5.28796ZM66.5773 24.7553V25.9925C66.5773 25.9925 66.5773 29.2226 63.3604 29.2226H59.7644C59.5141 29.2226 59.3477 29.3899 59.3477 29.5571V34.3345C59.3477 34.5017 59.5141 34.6732 59.7644 34.6732H63.3604C63.3604 34.6732 72.1362 34.6732 72.1362 25.9927V20.5554L66.5773 24.7553Z" fill="white"/>
<path d="M101.685 5.32994H95.8341C95.8187 5.32942 95.8033 5.33084 95.7883 5.33416L85.7415 20.8521C85.7497 20.8605 85.7539 20.8729 85.7623 20.8814V34.3345C85.7623 34.5017 85.9291 34.6731 86.179 34.6731H90.9461C91.1961 34.6731 91.3628 34.5017 91.3628 34.3345V20.8814L102.022 5.8736C102.231 5.62264 102.063 5.32994 101.685 5.32994ZM81.5826 5.45542C81.541 5.37168 81.3327 5.32994 81.2494 5.32994H75.4406C75.0613 5.32994 74.8955 5.62264 75.1029 5.87335C78.0322 10.036 81.0493 14.1945 84.0029 18.3825L87.2458 13.3795L81.5826 5.45542Z" fill="white"/>
<path d="M110.799 12.5603V5.6644C110.799 5.49718 110.632 5.32996 110.419 5.32996H105.614C105.365 5.32996 105.198 5.49718 105.198 5.6644V34.3345C105.198 34.5017 105.365 34.6732 105.614 34.6732H110.419C110.632 34.6732 110.799 34.5017 110.799 34.3345V29.3737H110.794V12.5603H110.799ZM128.517 34.1255L116.774 20.2503L128.433 5.87337C128.683 5.62266 128.475 5.32996 128.1 5.32996H122.124C122.041 5.32996 121.833 5.41369 121.791 5.45543L113.594 15.5484V24.6552L121.578 34.5445C121.62 34.5865 121.833 34.6742 121.916 34.6742H128.184C128.559 34.6732 128.771 34.3765 128.517 34.1255Z" fill="white"/>
<path d="M50.7657 9.73231C50.6199 9.93424 50.5509 10.1819 50.5714 10.4304C50.5918 10.6788 50.7003 10.9118 50.8772 11.087C53.1634 13.3665 54.5822 16.5194 54.5822 20.0002C54.5822 23.4811 53.1634 26.6345 50.8772 28.9135C50.7003 29.0887 50.5918 29.3216 50.5714 29.5701C50.5509 29.8186 50.6199 30.0662 50.7657 30.2682C51.1373 30.781 51.8828 30.8558 52.3315 30.4096C55.0071 27.7509 56.667 24.0668 56.667 20.0002C56.667 15.9337 55.0071 12.2501 52.3315 9.59093C51.8828 9.14467 51.1371 9.21971 50.7657 9.73231Z" fill="#D71023"/>
<path d="M34.9959 8.49883C35.1428 8.70054 35.357 8.84271 35.5995 8.89952C35.842 8.95633 36.0968 8.92401 36.3176 8.80843C38.0883 7.89645 40.0501 7.42076 42.0405 7.42076C44.031 7.42076 45.9928 7.89645 47.7634 8.80843C47.9842 8.92398 48.239 8.95627 48.4816 8.89941C48.7241 8.84256 48.9383 8.70033 49.0851 8.49858C49.4634 7.97679 49.2798 7.24454 48.7073 6.94911C46.645 5.88591 44.3596 5.3313 42.0408 5.3313C39.7219 5.3313 37.4365 5.88591 35.3742 6.94911C34.8019 7.24454 34.6181 7.97629 34.9967 8.49858L34.9959 8.49883Z" fill="#D71023"/>
<path d="M33.3131 30.2696L33.3153 30.2666C33.461 30.0651 33.5298 29.8179 33.5094 29.5698C33.4889 29.3217 33.3805 29.0892 33.2038 28.9144C30.9172 26.6349 29.4978 23.4815 29.4978 20.0002C29.4978 16.5188 30.9172 13.3659 33.2038 11.0859C33.3805 10.9111 33.4889 10.6786 33.5094 10.4306C33.5298 10.1825 33.461 9.93528 33.3153 9.73374L33.3131 9.73076C32.9415 9.21891 32.1982 9.14412 31.7501 9.58963C29.0744 12.2483 27.4146 15.9329 27.4146 20.0007C27.4146 24.0684 29.0744 27.7531 31.7501 30.4117C32.198 30.856 32.943 30.7815 33.3131 30.2696Z" fill="#D71023"/>
<path d="M49.0844 31.5019C48.9375 31.3002 48.7234 31.158 48.4809 31.1011C48.2383 31.0443 47.9835 31.0765 47.7627 31.1921C45.9921 32.1041 44.0303 32.5798 42.0398 32.5798C40.0493 32.5798 38.0875 32.1041 36.3169 31.1921C36.0961 31.0765 35.8413 31.0443 35.5987 31.1011C35.3562 31.158 35.1421 31.3002 34.9952 31.5019C34.6166 32.0237 34.8005 32.756 35.3728 33.0514C37.4351 34.1146 39.7205 34.6692 42.0393 34.6692C44.3581 34.6692 46.6435 34.1146 48.7058 33.0514C49.2784 32.756 49.462 32.0242 49.0837 31.5019H49.0844Z" fill="#D71023"/>
<path d="M30.2551 5.31063C30.4259 5.5015 30.6611 5.6223 30.9154 5.64982C31.1697 5.67734 31.4252 5.60963 31.6328 5.45971C34.6638 3.26904 38.3053 2.09037 42.0414 2.09063C45.7774 2.0909 49.4187 3.2701 52.4495 5.4612C52.657 5.61142 52.9126 5.67938 53.167 5.65199C53.4215 5.62461 53.6569 5.50382 53.8279 5.31286V5.31162C53.9259 5.20275 53.9999 5.07443 54.0453 4.935C54.0906 4.79556 54.1062 4.64813 54.091 4.50226C54.0758 4.3564 54.0302 4.21537 53.9571 4.08833C53.8841 3.9613 53.7852 3.85109 53.6669 3.76487C50.2814 1.31776 46.2141 0.000800493 42.041 0.000488337C37.8679 0.00017618 33.8005 1.31652 30.4146 3.76313C30.2963 3.84937 30.1974 3.9596 30.1244 4.08666C30.0513 4.21372 30.0057 4.35477 29.9905 4.50065C29.9753 4.64654 29.9909 4.79399 30.0362 4.93345C30.0815 5.0729 30.1556 5.20124 30.2536 5.31013L30.2551 5.31063Z" fill="#D71023"/>
<path d="M53.8259 34.6888C53.655 34.498 53.4197 34.3771 53.1654 34.3496C52.911 34.3221 52.6555 34.3898 52.4479 34.5398C49.4175 36.7302 45.7768 37.909 42.0414 37.9093C38.3059 37.9096 34.665 36.7314 31.6342 34.5415C31.4267 34.3916 31.1712 34.3239 30.9169 34.3514C30.6626 34.3789 30.4274 34.4997 30.2565 34.6906C30.1585 34.7995 30.0844 34.9278 30.0391 35.0673C29.9938 35.2068 29.9782 35.3542 29.9934 35.5001C30.0087 35.646 30.0543 35.7871 30.1274 35.9141C30.2005 36.0412 30.2995 36.1514 30.4178 36.2376C33.8034 38.6834 37.8702 39.9992 42.0426 39.9989C46.215 39.9986 50.2816 38.6821 53.6668 36.2358C53.7851 36.1496 53.884 36.0394 53.9571 35.9123C54.0301 35.7852 54.0758 35.6442 54.0909 35.4983C54.1061 35.3524 54.0905 35.205 54.0452 35.0655C53.9999 34.9261 53.9259 34.7977 53.8279 34.6888H53.8259Z" fill="#D71023"/>
<path d="M42.041 10.5238C36.822 10.5238 32.5913 14.7672 32.5913 20.0013C32.5913 24.2125 35.3306 27.7803 39.1189 29.015V26.3526C39.1195 26.2471 39.1379 26.1425 39.1731 26.0432C39.1824 26.016 39.1935 25.9894 39.2063 25.9637C39.4958 25.2582 39.5707 24.4827 39.4217 23.7346C39.2727 22.9865 38.9064 22.2993 38.3689 21.7595L38.3521 21.7426C38.0505 21.4421 37.8113 21.0845 37.6483 20.6907C37.4853 20.2969 37.4016 19.8746 37.4022 19.4482C37.4022 19.3563 37.4065 19.2686 37.4149 19.1766L37.4022 19.2601L37.456 18.8844L37.4691 18.792L37.5214 18.4272L38.1207 14.2248L38.1309 14.153H38.5552V20.05C38.5552 20.1609 38.5991 20.2672 38.6773 20.3456C38.7554 20.4239 38.8614 20.468 38.972 20.468C39.0825 20.468 39.1885 20.4239 39.2666 20.3456C39.3448 20.2672 39.3887 20.1609 39.3887 20.05V14.153H39.7011V20.05C39.6997 20.1055 39.7094 20.1607 39.7297 20.2123C39.7499 20.2639 39.7802 20.311 39.8188 20.3507C39.8575 20.3904 39.9036 20.422 39.9546 20.4435C40.0056 20.465 40.0603 20.4761 40.1157 20.4761C40.171 20.4761 40.2257 20.465 40.2767 20.4435C40.3277 20.422 40.3738 20.3904 40.4125 20.3507C40.4511 20.311 40.4814 20.2639 40.5017 20.2123C40.5219 20.1607 40.5316 20.1055 40.5303 20.05V14.153H40.8429V20.05C40.8429 20.1609 40.8868 20.2672 40.965 20.3456C41.0431 20.4239 41.1491 20.468 41.2596 20.468C41.3701 20.468 41.4761 20.4239 41.5543 20.3456C41.6324 20.2672 41.6763 20.1609 41.6763 20.05L41.5596 16.9441L41.5572 16.8696L41.4561 14.1704V14.1528H41.907L42.5248 18.4799L42.5694 18.7918L42.5806 18.8708L42.6361 19.2599L42.6237 19.1853C42.6318 19.2733 42.6359 19.3611 42.6361 19.4487C42.6367 19.8752 42.5531 20.2975 42.39 20.6913C42.2269 21.0851 41.9876 21.4426 41.686 21.7431L41.6117 21.8177C41.3685 22.0741 41.161 22.3623 40.9948 22.6744C40.6985 23.2343 40.544 23.8586 40.5449 24.4925C40.5441 24.9973 40.6432 25.4973 40.8365 25.9634C40.8489 25.9928 40.8573 26.0179 40.8699 26.043C40.8937 26.106 40.9077 26.1722 40.9115 26.2395V26.2604C40.9172 26.3215 40.9172 26.3831 40.9115 26.4442V29.4088C42.2379 29.5719 43.5838 29.4496 44.8593 29.05C44.9306 28.8858 44.9681 28.709 44.9696 28.5299C44.9709 28.4583 44.9639 28.3868 44.9488 28.3167C44.9019 28.0115 44.7523 27.7315 44.5249 27.5232C44.2976 27.3149 44.006 27.1908 43.6987 27.1715C43.6402 26.4526 43.611 25.7254 43.611 24.9899C43.609 23.5367 43.7261 22.0858 43.961 20.6518C44.2687 18.7055 44.7945 16.8003 45.5282 14.9722C45.6084 14.7297 45.7555 14.5149 45.9525 14.3529C46.1495 14.1908 46.3883 14.0882 46.6411 14.0568V28.2802C49.5338 26.6599 51.4912 23.5607 51.4912 20.0013C51.4907 14.7672 47.26 10.5238 42.041 10.5238Z" fill="#D71023"/>
</g>
<defs>
<clipPath id="clip0_922_3314">
<rect width="128.627" height="40" fill="white"/>
</clipPath>
</defs>
</svg>
