<svg width="258" height="80" viewBox="0 0 258 80" fill="none" xmlns="http://www.w3.org/2000/svg">
<g clip-path="url(#clip0_922_3386)">
<path d="M48.3954 10.6602H38.9538C38.4459 10.6602 38.1115 10.9946 38.1115 11.329V49.5617L16.7936 19.0357V38.4778L38.112 69.0897C38.1957 69.2656 38.6124 69.3491 38.7873 69.3491H48.3954C48.8953 69.3491 49.2288 69.0062 49.2288 68.6718V11.329C49.2302 10.9946 48.8968 10.6602 48.3954 10.6602ZM10.4409 10.6602H0.75017C0.333464 10.6602 0 10.9946 0 11.329V68.6693C0 69.0037 0.333464 69.3466 0.75017 69.3466H10.3597C10.868 69.3466 11.202 69.0037 11.202 68.6693V11.0279L11.1188 10.9111C11.0355 10.7436 10.6094 10.6602 10.4409 10.6602Z" fill="#0A1639"/>
<path d="M143.522 10.5762H123.629C123.129 10.5762 122.795 10.9106 122.795 11.2451V19.9635C122.795 20.2979 123.129 20.6324 123.629 20.6324H133.155V42.4801L144.272 34.0817V11.2456C144.272 10.9111 144.025 10.5762 143.522 10.5762ZM133.155 49.5109V51.9852C133.155 51.9852 133.155 58.4455 126.721 58.4455H119.529C119.028 58.4455 118.695 58.78 118.695 59.1144V68.6692C118.695 69.0037 119.028 69.3466 119.529 69.3466H126.721C126.721 69.3466 144.272 69.3466 144.272 51.9857V41.111L133.155 49.5109Z" fill="#0A1639"/>
<path d="M203.37 10.6599H191.669C191.638 10.6588 191.607 10.6617 191.577 10.6683L171.484 41.7041C171.5 41.721 171.508 41.7459 171.525 41.7628V68.6689C171.525 69.0034 171.859 69.3463 172.359 69.3463H181.893C182.393 69.3463 182.726 69.0034 182.726 68.6689V41.7628L204.045 11.7472C204.462 11.2453 204.127 10.6599 203.37 10.6599ZM163.166 10.9108C163.083 10.7434 162.666 10.6599 162.499 10.6599H150.882C150.123 10.6599 149.792 11.2453 150.206 11.7467C156.065 20.072 162.099 28.3889 168.006 36.765L174.492 26.759L163.166 10.9108Z" fill="#0A1639"/>
<path d="M221.597 25.1208V11.329C221.597 10.9946 221.263 10.6602 220.838 10.6602H211.228C210.729 10.6602 210.395 10.9946 210.395 11.329V68.6693C210.395 69.0037 210.729 69.3466 211.228 69.3466H220.838C221.263 69.3466 221.597 69.0037 221.597 68.6693V58.7477H221.588V25.1208H221.597ZM257.033 68.2513L233.547 40.5008L256.866 11.747C257.366 11.2456 256.949 10.6602 256.199 10.6602H244.248C244.081 10.6602 243.665 10.8276 243.581 10.9111L227.188 31.0971V49.3107L243.156 69.0892C243.24 69.1732 243.665 69.3486 243.832 69.3486H256.367C257.117 69.3466 257.541 68.7532 257.033 68.2513Z" fill="#0A1639"/>
<path d="M101.531 19.4644C101.24 19.8682 101.102 20.3635 101.143 20.8605C101.184 21.3574 101.401 21.8233 101.754 22.1737C106.327 26.7327 109.164 33.0385 109.164 40.0002C109.164 46.962 106.327 53.2687 101.754 57.8267C101.401 58.1772 101.184 58.643 101.143 59.14C101.102 59.637 101.24 60.1322 101.531 60.5361C102.275 61.5618 103.766 61.7114 104.663 60.8189C110.014 55.5015 113.334 48.1333 113.334 40.0002C113.334 31.8672 110.014 24.5 104.663 19.1816C103.766 18.2891 102.274 18.4392 101.531 19.4644Z" fill="#D71023"/>
<path d="M69.9913 16.9977C70.2851 17.4011 70.7135 17.6854 71.1985 17.799C71.6836 17.9127 72.1932 17.848 72.6348 17.6169C76.176 15.7929 80.0996 14.8415 84.0805 14.8415C88.0615 14.8415 91.9851 15.7929 95.5263 17.6169C95.968 17.848 96.4776 17.9125 96.9627 17.7988C97.4477 17.6851 97.876 17.4007 98.1698 16.9972C98.9264 15.9536 98.5592 14.4891 97.4141 13.8982C93.2895 11.7718 88.7187 10.6626 84.081 10.6626C79.4434 10.6626 74.8726 11.7718 70.748 13.8982C69.6034 14.4891 69.2357 15.9526 69.9928 16.9972L69.9913 16.9977Z" fill="#D71023"/>
<path d="M66.6262 60.5392L66.6306 60.5332C66.922 60.1302 67.0596 59.6357 67.0187 59.1396C66.9778 58.6435 66.761 58.1785 66.4077 57.8288C61.8343 53.2698 58.9957 46.9631 58.9957 40.0004C58.9957 33.0376 61.8343 26.7319 66.4077 22.1719C66.761 21.8223 66.9778 21.3572 67.0187 20.8611C67.0596 20.365 66.922 19.8706 66.6306 19.4675L66.6262 19.4615C65.8829 18.4378 64.3965 18.2882 63.5001 19.1793C58.1489 24.4966 54.8291 31.8658 54.8291 40.0014C54.8291 48.1369 58.1489 55.5061 63.5001 60.8234C64.396 61.712 65.8859 61.5629 66.6262 60.5392Z" fill="#D71023"/>
<path d="M98.1683 63.0039C97.8746 62.6004 97.4463 62.316 96.9612 62.2022C96.4762 62.0885 95.9665 62.1531 95.5249 62.3842C91.9836 64.2082 88.06 65.1595 84.0791 65.1595C80.0982 65.1595 76.1746 64.2082 72.6333 62.3842C72.1917 62.1531 71.6821 62.0885 71.197 62.2022C70.7119 62.316 70.2836 62.6004 69.9899 63.0039C69.2328 64.0475 69.6004 65.512 70.745 66.1029C74.8697 68.2293 79.4405 69.3385 84.0781 69.3385C88.7158 69.3385 93.2866 68.2293 97.4112 66.1029C98.5563 65.512 98.9234 64.0485 98.1668 63.0039H98.1683Z" fill="#D71023"/>
<path d="M60.5101 10.6213C60.8519 11.003 61.3223 11.2446 61.8309 11.2996C62.3395 11.3547 62.8504 11.2193 63.2655 10.9194C69.3276 6.53808 76.6106 4.18073 84.0827 4.18127C91.5548 4.1818 98.8374 6.5402 104.899 10.9224C105.314 11.2228 105.825 11.3588 106.334 11.304C106.843 11.2492 107.314 11.0076 107.656 10.6257V10.6232C107.852 10.4055 108 10.1489 108.091 9.87C108.181 9.59113 108.212 9.29626 108.182 9.00453C108.152 8.7128 108.06 8.43075 107.914 8.17667C107.768 7.92259 107.57 7.70218 107.334 7.52974C100.563 2.63551 92.4282 0.00160099 84.082 0.000976674C75.7358 0.000352361 67.6009 2.63305 60.8292 7.52626C60.5926 7.69875 60.3948 7.91921 60.2487 8.17332C60.1026 8.42744 60.0114 8.70954 59.981 9.00131C59.9506 9.29307 59.9818 9.58798 60.0724 9.86689C60.1631 10.1458 60.3112 10.4025 60.5071 10.6203L60.5101 10.6213Z" fill="#D71023"/>
<path d="M107.652 69.3779C107.31 68.9962 106.839 68.7545 106.331 68.6995C105.822 68.6445 105.311 68.7799 104.896 69.0798C98.835 73.4606 91.5536 75.8182 84.0827 75.8188C76.6119 75.8195 69.3301 73.463 63.2684 69.0832C62.8533 68.7834 62.3424 68.648 61.8338 68.703C61.3252 68.7581 60.8548 68.9997 60.513 69.3814C60.317 69.5992 60.1689 69.8559 60.0782 70.1348C59.9876 70.4138 59.9565 70.7087 59.9869 71.0005C60.0173 71.2923 60.1086 71.5744 60.2548 71.8285C60.401 72.0826 60.5989 72.303 60.8356 72.4754C67.6067 77.367 75.7404 79.9987 84.0852 79.9981C92.43 79.9974 100.563 77.3645 107.334 72.4719C107.57 72.2994 107.768 72.079 107.914 71.8249C108.06 71.5707 108.152 71.2886 108.182 70.9969C108.212 70.7051 108.181 70.4102 108.09 70.1313C108 69.8524 107.852 69.5957 107.656 69.3779H107.652Z" fill="#D71023"/>
<path d="M84.082 21.0479C73.6441 21.0479 65.1826 29.5347 65.1826 40.0029C65.1826 48.4252 70.6612 55.5608 78.2377 58.0301V52.7054C78.239 52.4945 78.2757 52.2853 78.3462 52.0867C78.3648 52.0322 78.3869 51.9791 78.4126 51.9276C78.9916 50.5167 79.1414 48.9656 78.8434 47.4694C78.5454 45.9732 77.8129 44.5989 76.7379 43.5193L76.7042 43.4855C76.1011 42.8844 75.6227 42.1693 75.2966 41.3817C74.9705 40.5941 74.8033 39.7495 74.8045 38.8967C74.8045 38.7128 74.8129 38.5374 74.8298 38.3535L74.8045 38.5205L74.912 37.7691L74.9383 37.5843L75.0428 36.8547L76.2414 28.4499L76.2617 28.3063H77.1105V40.1003C77.1105 40.322 77.1983 40.5346 77.3546 40.6913C77.5109 40.8481 77.7229 40.9362 77.9439 40.9362C78.1649 40.9362 78.3769 40.8481 78.5332 40.6913C78.6895 40.5346 78.7773 40.322 78.7773 40.1003V28.3063H79.4021V40.1003C79.3994 40.2112 79.4189 40.3216 79.4593 40.4248C79.4998 40.5281 79.5604 40.6222 79.6377 40.7016C79.715 40.781 79.8073 40.8442 79.9092 40.8872C80.0112 40.9303 80.1207 40.9525 80.2313 40.9525C80.342 40.9525 80.4515 40.9303 80.5534 40.8872C80.6554 40.8442 80.7477 40.781 80.825 40.7016C80.9022 40.6222 80.9629 40.5281 81.0033 40.4248C81.0438 40.3216 81.0632 40.2112 81.0605 40.1003V28.3063H81.6858V40.1003C81.6858 40.322 81.7736 40.5346 81.9299 40.6913C82.0862 40.8481 82.2982 40.9362 82.5192 40.9362C82.7403 40.9362 82.9523 40.8481 83.1085 40.6913C83.2648 40.5346 83.3527 40.322 83.3527 40.1003L83.1193 33.8885L83.1143 33.7394L82.9122 28.341V28.3058H83.8139L85.0497 36.9601L85.1389 37.5838L85.1612 37.7418L85.2722 38.52L85.2474 38.3709C85.2636 38.5468 85.2718 38.7224 85.2722 38.8977C85.2734 39.7505 85.1062 40.5952 84.78 41.3828C84.4538 42.1705 83.9753 42.8855 83.372 43.4865L83.2233 43.6356C82.737 44.1484 82.322 44.7248 81.9896 45.3491C81.3971 46.4688 81.0881 47.7175 81.0898 48.9852C81.0882 49.9949 81.2864 50.9948 81.6729 51.9271C81.6977 51.9858 81.7146 52.036 81.7398 52.0862C81.7874 52.2122 81.8155 52.3447 81.8231 52.4792V52.521C81.8343 52.6433 81.8343 52.7664 81.8231 52.8887V58.8178C84.4759 59.144 87.1675 58.8993 89.7187 58.1002C89.8612 57.7719 89.9362 57.4182 89.9392 57.0601C89.9418 56.9168 89.9278 56.7738 89.8976 56.6337C89.8037 56.0232 89.5046 55.4632 89.0499 55.0466C88.5951 54.63 88.012 54.3819 87.3973 54.3433C87.2804 52.9055 87.2219 51.4511 87.2219 49.9801C87.218 47.0737 87.4522 44.1719 87.922 41.3039C88.5375 37.4113 89.589 33.6008 91.0565 29.9447C91.2167 29.4596 91.511 29.03 91.905 28.706C92.2989 28.3819 92.7765 28.1766 93.2822 28.1139V56.5607C99.0675 53.3201 102.982 47.1217 102.982 40.0029C102.981 29.5347 94.52 21.0479 84.082 21.0479Z" fill="#D71023"/>
</g>
<defs>
<clipPath id="clip0_922_3386">
<rect width="257.255" height="80" fill="white"/>
</clipPath>
</defs>
</svg>
