<svg width="40" height="40" viewBox="0 0 40 40" fill="none" xmlns="http://www.w3.org/2000/svg">
<path d="M35 -7.45305e-08C37.7614 -3.33684e-08 40 2.23858 40 5L40 35C40 37.7614 37.7614 40 35 40L5 40C2.23857 40 -4.17494e-06 37.7614 -4.14859e-06 35L-3.8624e-06 5C-3.83605e-06 2.23858 2.23857 -5.62875e-07 5 -5.21713e-07L35 -7.45305e-08Z" fill="#FF0000"/>
<rect x="6.00098" y="9.97803" width="27.999" height="20.3579"/>
<path d="M32.7443 14.0649C32.2423 12.0626 31.3053 11.2874 29.5762 11.0085C28.5779 10.8635 23.7924 10.6738 19.9941 10.6738H20.0109C16.2126 10.6738 11.4271 10.8635 10.4287 11.0085C8.6997 11.2874 7.76268 12.057 7.26071 14.0649C7.09339 14.7398 6.85913 18.4265 6.85913 19.8376V20.1444C6.85913 21.5499 7.09339 25.2422 7.26071 25.9171C7.76268 27.9194 8.6997 28.6947 10.4287 28.9736C11.4271 29.1186 16.2126 29.3082 20.0109 29.3082H19.9941C23.7924 29.3082 28.5779 29.1186 29.5762 28.9736C31.3053 28.6947 32.2423 27.925 32.7443 25.9171C32.9116 25.2422 33.1458 21.5555 33.1458 20.1444V19.8376C33.1458 18.4265 32.9116 14.7398 32.7443 14.0649Z" fill="white"/>
<path d="M17 16L24 19.9043L17 24V16Z" fill="#FF0000"/>
</svg>
